<svg xmlns="http://www.w3.org/2000/svg" xmlns:xlink="http://www.w3.org/1999/xlink" viewBox="0 0 122 87"><defs><style>.cls-1{fill:#412e26;}.cls-2{fill:url(#linear-gradient);}.cls-3{fill:url(#radial-gradient);}.cls-4{opacity:0.16;fill:url(#linear-gradient-2);}.cls-5{opacity:0.44;}.cls-6{fill:#fff;}</style><linearGradient id="linear-gradient" x1="82" y1="43.5" x2="122" y2="43.5" gradientUnits="userSpaceOnUse"><stop offset="0.43" stop-color="#d3d3d3"/><stop offset="0.68" stop-color="#dcdcdc"/><stop offset="1" stop-color="#e0e0e0"/></linearGradient><radialGradient id="radial-gradient" cx="43.5" cy="43.5" r="43.5" gradientUnits="userSpaceOnUse"><stop offset="0.43" stop-color="#d3d3d3"/><stop offset="0.48" stop-color="#d6d6d6"/><stop offset="0.75" stop-color="#e4e4e4"/><stop offset="1" stop-color="#e8e8e8"/></radialGradient><linearGradient id="linear-gradient-2" x1="42.79" y1="55.22" x2="44.77" y2="7.32" gradientUnits="userSpaceOnUse"><stop offset="0.38" stop-color="#d3d3d3" stop-opacity="0"/><stop offset="1" stop-color="#e8e8e8"/></linearGradient></defs><title>coffee-cup</title><g id="Layer_2" data-name="Layer 2"><g id="Layer_1-2" data-name="Layer 1"><circle class="cls-1" cx="43.5" cy="43.5" r="35.5"/><path class="cls-2" d="M82,37h33.5a6.5,6.5,0,0,1,6.5,6.5v0a6.5,6.5,0,0,1-6.5,6.5H82a0,0,0,0,1,0,0V37A0,0,0,0,1,82,37Z"/><path class="cls-3" d="M43.5,87A43.5,43.5,0,1,1,87,43.5,43.55,43.55,0,0,1,43.5,87Zm0-77A33.5,33.5,0,1,0,77,43.5,33.54,33.54,0,0,0,43.5,10Z"/><circle class="cls-4" cx="43.5" cy="38" r="28.5"/><g class="cls-5"><path class="cls-6" d="M77,43a30.08,30.08,0,0,1-1.87,13.31A32.29,32.29,0,0,1,56.31,75.13,30,30,0,0,1,43,77a39.84,39.84,0,0,0,12.71-3.31,36.13,36.13,0,0,0,18-18A39.76,39.76,0,0,0,77,43Z"/></g></g></g></svg>