<?xml version="1.0" encoding="utf-8"?>
<!-- Generator: Adobe Illustrator 21.0.1, SVG Export Plug-In . SVG Version: 6.00 Build 0)  -->
<svg version="1.1" id="Layer_1" xmlns="http://www.w3.org/2000/svg" xmlns:xlink="http://www.w3.org/1999/xlink" x="0px" y="0px"
	 viewBox="0 0 24 24" style="enable-background:new 0 0 24 24;" xml:space="preserve">
<path d="M16.5,20l3.4,4h-2.6l-3.4-4C13.9,20,16.5,20,16.5,20z M11,24h2v-4h-2V24z M4.1,24h2.6l3.4-4H7.5L4.1,24z M9,6v7l7-3.4
	C16,9.6,9,6,9,6z M22,3v13h1v2H1v-2h1V3H1V0h22v3H22z M20,3H4v13h16V3z"/>
</svg>
