<?xml version="1.0" encoding="utf-8"?>
<!-- Generator: Adobe Illustrator 21.0.2, SVG Export Plug-In . SVG Version: 6.00 Build 0)  -->
<svg version="1.1" id="Layer_1" xmlns="http://www.w3.org/2000/svg" xmlns:xlink="http://www.w3.org/1999/xlink" x="0px" y="0px"
	 viewBox="0 0 318 59" style="enable-background:new 0 0 318 59;" xml:space="preserve">
<style type="text/css">
	.st0{fill:#3F3F3F;}
</style>
<title>logo</title>
<desc>Created with Sketch.</desc>
<g>
	<path id="path-1" class="st0" d="M22.8,44.5v-5.1h-0.1c-2.2,3.9-5.7,5.8-10.3,5.8c-3.8,0-6.8-1.3-9-4C1.1,38.5,0,34.9,0,30.2
		c0-5,1.3-8.9,3.8-11.9s5.8-4.5,10-4.5c4.1,0,7.1,1.6,9,4.9h0.1V0h4.8v44.4h-4.9V44.5L22.8,44.5z M22.8,26.5c0-2.4-0.8-4.5-2.4-6.2
		c-1.6-1.7-3.6-2.5-6.1-2.5c-2.9,0-5.2,1.1-6.9,3.2s-2.5,5.1-2.5,8.9c0,3.5,0.8,6.2,2.4,8.2s3.8,3,6.5,3s4.8-1,6.5-2.9
		c1.7-1.9,2.5-4.4,2.5-7.3V26.5L22.8,26.5L22.8,26.5z M47.4,30.7c0.1,3.3,1,5.9,2.7,7.7s4.1,2.7,7.1,2.7c3.4,0,6.5-1.1,9.3-3.3v4.5
		c-2.6,1.9-6.1,2.9-10.5,2.9c-4.2,0-7.6-1.4-10-4.1c-2.4-2.7-3.6-6.6-3.6-11.5c0-4.7,1.3-8.5,4-11.4c2.6-2.9,5.9-4.4,9.9-4.4
		c3.9,0,7,1.3,9.1,3.8c2.1,2.5,3.2,6.1,3.2,10.6v2.5H47.4L47.4,30.7L47.4,30.7z M61.7,20.1c-1.3-1.5-3.2-2.3-5.5-2.3
		c-2.3,0-4.2,0.8-5.8,2.4c-1.6,1.6-2.6,3.7-2.9,6.4h16.2C63.7,23.8,63,21.7,61.7,20.1L61.7,20.1L61.7,20.1z M90.5,39.8
		c0.7,0.9,1.8,1.3,3.4,1.3c1.2,0,2.3-0.3,3.1-1v4.1c-1.1,0.6-2.6,0.9-4.5,0.9c-5.3,0-7.9-2.9-7.9-8.8V18.6h-5.2v-4.1h5.2V7.2
		l4.8-1.6v8.9H97v4.1h-7.6v16.9C89.5,37.5,89.8,38.9,90.5,39.8L90.5,39.8L90.5,39.8z M127.3,44.5v-4.7h-0.1
		c-2.1,3.6-5.2,5.4-9.2,5.4c-3,0-5.3-0.8-7-2.4c-1.7-1.6-2.5-3.7-2.5-6.3c0-5.6,3.3-8.9,9.9-9.8l9-1.3c0-5.1-2.1-7.6-6.2-7.6
		c-3.6,0-6.9,1.2-9.8,3.7v-4.9c2.9-1.9,6.3-2.8,10.2-2.8c7.1,0,10.6,3.7,10.6,11.2v19.5H127.3L127.3,44.5L127.3,44.5z M127.3,29.3
		l-7.2,1c-2.2,0.3-3.9,0.9-5,1.7s-1.7,2.2-1.7,4.2c0,1.5,0.5,2.7,1.6,3.6c1,0.9,2.4,1.4,4.2,1.4c2.4,0,4.4-0.8,5.9-2.5
		c1.6-1.7,2.3-3.8,2.3-6.3v-3.1H127.3L127.3,29.3z M168.5,44.5V27.4c0-6.4-2.3-9.6-7-9.6c-2.4,0-4.4,0.9-6,2.7
		c-1.6,1.8-2.4,4.1-2.4,6.8v17.1h-4.8v-30h4.8v5h0.1c2.3-3.8,5.5-5.7,9.8-5.7c3.3,0,5.8,1.1,7.5,3.2c1.7,2.1,2.6,5.2,2.6,9.2v18.3
		h-4.6V44.5L168.5,44.5z M199.3,58.6c-3.7,0-7-0.7-9.7-2.1v-4.8c3.4,1.9,6.6,2.8,9.7,2.8c7.4,0,11.1-3.9,11.1-11.8v-3.3h-0.1
		c-2.3,3.8-5.7,5.7-10.3,5.7c-3.7,0-6.7-1.3-9-4c-2.3-2.7-3.4-6.2-3.4-10.7c0-5.1,1.2-9.2,3.7-12.2c2.4-3,5.8-4.5,10.1-4.5
		c4,0,7,1.6,9,4.9h0.1v-4.2h4.8V42C215.1,53.1,209.8,58.6,199.3,58.6L199.3,58.6L199.3,58.6z M210.3,26.5c0-2.4-0.8-4.4-2.4-6.1
		c-1.6-1.7-3.6-2.5-6-2.5c-3,0-5.3,1.1-7,3.2c-1.7,2.2-2.5,5.2-2.5,9.1c0,3.3,0.8,6,2.4,8c1.6,2,3.7,3,6.4,3c2.7,0,4.9-1,6.6-2.9
		c1.7-1.9,2.5-4.4,2.5-7.4V26.5L210.3,26.5L210.3,26.5z M232,44.5V0h4.8v44.4H232V44.5L232,44.5z M256.7,30.7c0.1,3.3,1,5.9,2.7,7.7
		c1.7,1.8,4.1,2.7,7.1,2.7c3.4,0,6.5-1.1,9.3-3.3v4.5c-2.6,1.9-6.1,2.9-10.5,2.9c-4.2,0-7.6-1.4-10-4.1c-2.4-2.7-3.6-6.6-3.6-11.5
		c0-4.7,1.3-8.5,4-11.4c2.6-2.9,5.9-4.4,9.9-4.4c3.9,0,7,1.3,9.1,3.8s3.2,6.1,3.2,10.6v2.5H256.7L256.7,30.7L256.7,30.7z M271,20.1
		c-1.3-1.5-3.2-2.3-5.5-2.3c-2.3,0-4.2,0.8-5.8,2.4s-2.6,3.7-2.9,6.4H273C272.9,23.8,272.3,21.7,271,20.1L271,20.1L271,20.1z
		 M313.2,44.5v-5.1h-0.1c-2.2,3.9-5.7,5.8-10.3,5.8c-3.8,0-6.8-1.3-9-4c-2.3-2.7-3.4-6.3-3.4-11c0-5,1.2-8.9,3.7-11.9
		s5.8-4.5,10-4.5c4.1,0,7.1,1.6,9,4.9h0.1V0h4.8v44.4h-4.8V44.5L313.2,44.5z M313.2,26.5c0-2.4-0.8-4.5-2.4-6.2
		c-1.6-1.7-3.6-2.5-6.1-2.5c-2.9,0-5.2,1.1-6.9,3.2c-1.7,2.1-2.5,5.1-2.5,8.9c0,3.5,0.8,6.2,2.4,8.2s3.8,3,6.5,3
		c2.7,0,4.8-1,6.5-2.9c1.7-1.9,2.5-4.4,2.5-7.3V26.5L313.2,26.5L313.2,26.5z"/>
</g>
</svg>
