<?xml version="1.0" encoding="utf-8"?>
<!-- Generator: Adobe Illustrator 21.0.1, SVG Export Plug-In . SVG Version: 6.00 Build 0)  -->
<svg version="1.1" id="Layer_1" xmlns="http://www.w3.org/2000/svg" xmlns:xlink="http://www.w3.org/1999/xlink" x="0px" y="0px"
	 viewBox="0 0 24 24.6" style="enable-background:new 0 0 24 24.6;" xml:space="preserve">
<path d="M12,0.3c-3.9,0-7,3.1-7,7s3.1,7,7,7s7-3.1,7-7S15.9,0.3,12,0.3z M12,12.3c-2.8,0-5-2.2-5-5s2.2-5,5-5s5,2.2,5,5
	S14.8,12.3,12,12.3z M16,15.4v9l-4-3l-4,3v-9c0.6,0.3,1.3,0.6,2,0.7v4.3l2.1-1.5l1.9,1.5v-4.2C14.7,16,15.4,15.7,16,15.4z M9.9,4.2
	v6.2l6.2-3L9.9,4.2z"/>
</svg>
