<svg xmlns="http://www.w3.org/2000/svg" xmlns:xlink="http://www.w3.org/1999/xlink" viewBox="0 0 96 98"><defs><style>.cls-1{fill:url(#linear-gradient);}.cls-2{fill:url(#linear-gradient-2);}.cls-10,.cls-11,.cls-12,.cls-3,.cls-4,.cls-5,.cls-6,.cls-7,.cls-8,.cls-9{fill:none;stroke-miterlimit:10;stroke-width:0.75px;}.cls-3{stroke:url(#linear-gradient-3);}.cls-4{stroke:url(#linear-gradient-4);}.cls-5{stroke:url(#linear-gradient-5);}.cls-6{stroke:url(#linear-gradient-6);}.cls-7{stroke:url(#linear-gradient-7);}.cls-8{stroke:url(#linear-gradient-8);}.cls-9{stroke:url(#linear-gradient-9);}.cls-10{stroke:url(#linear-gradient-10);}.cls-11{stroke:url(#linear-gradient-11);}.cls-12{stroke:url(#linear-gradient-12);}</style><linearGradient id="linear-gradient" x1="4.18" y1="55.05" x2="85.72" y2="55.05" gradientUnits="userSpaceOnUse"><stop offset="0" stop-color="#e54545"/><stop offset="1" stop-color="#e54578"/></linearGradient><linearGradient id="linear-gradient-2" x1="72.53" y1="16.49" x2="94.5" y2="16.49" xlink:href="#linear-gradient"/><linearGradient id="linear-gradient-3" x1="6" y1="81.33" x2="89" y2="81.33" xlink:href="#linear-gradient"/><linearGradient id="linear-gradient-4" x1="4" y1="64.67" x2="93" y2="64.67" xlink:href="#linear-gradient"/><linearGradient id="linear-gradient-5" x1="0" y1="48" x2="96" y2="48" xlink:href="#linear-gradient"/><linearGradient id="linear-gradient-6" x1="4" y1="31.33" x2="93" y2="31.33" xlink:href="#linear-gradient"/><linearGradient id="linear-gradient-7" x1="6" y1="14.67" x2="89" y2="14.67" xlink:href="#linear-gradient"/><linearGradient id="linear-gradient-8" x1="80.96" y1="52" x2="81.71" y2="52" xlink:href="#linear-gradient"/><linearGradient id="linear-gradient-9" x1="64.29" y1="51" x2="65.04" y2="51" xlink:href="#linear-gradient"/><linearGradient id="linear-gradient-10" x1="47.63" y1="49" x2="48.38" y2="49" xlink:href="#linear-gradient"/><linearGradient id="linear-gradient-11" x1="30.96" y1="50.5" x2="31.71" y2="50.5" xlink:href="#linear-gradient"/><linearGradient id="linear-gradient-12" x1="14.29" y1="53" x2="15.04" y2="53" xlink:href="#linear-gradient"/></defs><title>icon-design-icon</title><g id="Layer_2" data-name="Layer 2"><g id="Layer_1-2" data-name="Layer 1"><path class="cls-1" d="M25.49,90.39,85.72,30.17,69.83,14.29,9.61,74.51a2,2,0,0,0-.69,1L4.24,93.34s0,.07,0,.1a2.13,2.13,0,0,0,0,.21c0,.06,0,.13,0,.19a1.62,1.62,0,0,0,0,.19,2.07,2.07,0,0,0,0,.21s0,.07,0,.1l0,.07a1.71,1.71,0,0,0,.07.2l.08.17.1.16.11.16.13.14.14.13.16.11.16.1.17.08.2.07.07,0,.1,0,.21,0h.38l.21,0,.1,0,17.79-4.68A2,2,0,0,0,25.49,90.39ZM11.42,88.58A2,2,0,0,0,9.74,88l2.72-10.34,9.85,9.85L12,90.26A2,2,0,0,0,11.42,88.58Z"/><path class="cls-2" d="M88.42,27.47,72.53,11.58,78.61,5.5A29.88,29.88,0,0,1,94.5,21.39Z"/><line class="cls-3" x1="6" y1="81.33" x2="89" y2="81.33"/><line class="cls-4" x1="4" y1="64.67" x2="93" y2="64.67"/><line class="cls-5" y1="48" x2="96" y2="48"/><line class="cls-6" x1="4" y1="31.33" x2="93" y2="31.33"/><line class="cls-7" x1="6" y1="14.67" x2="89" y2="14.67"/><line class="cls-8" x1="81.33" y1="6" x2="81.33" y2="98"/><line class="cls-9" x1="64.67" y1="4" x2="64.67" y2="98"/><line class="cls-10" x1="48" x2="48" y2="98"/><line class="cls-11" x1="31.33" y1="3" x2="31.33" y2="98"/><line class="cls-12" x1="14.67" y1="8" x2="14.67" y2="98"/></g></g></svg>