<svg xmlns="http://www.w3.org/2000/svg" xmlns:xlink="http://www.w3.org/1999/xlink" viewBox="0 0 183.7 181.38"><defs><style>.cls-1{fill:url(#linear-gradient);}</style><linearGradient id="linear-gradient" x1="-8.35" y1="25.64" x2="171.1" y2="128.94" gradientUnits="userSpaceOnUse"><stop offset="0" stop-color="#0013d4"/><stop offset="1" stop-color="#2ad8ff"/></linearGradient></defs><title>logo</title><g id="Layer_2" data-name="Layer 2"><g id="Layer_1-2" data-name="Layer 1"><path class="cls-1" d="M183.7,12.66v88.76a2,2,0,0,1-1.79,2L84,114a2,2,0,0,1-2-2.87L94,86.83a2,2,0,0,1,1.58-1.1l59.91-6.35a2,2,0,0,0,1.79-2V37a2,2,0,0,0-1.82-2L28.58,23.25a2,2,0,0,0-2.18,2V99.18A2,2,0,0,0,29,101.1L76.64,87.24a2,2,0,0,1,2.44,2.61L45.6,181.38l-.59-1a2,2,0,0,1-.27-.93l-2.08-54.23a2,2,0,0,0-2.58-1.84L2.58,134.73A2,2,0,0,1,0,132.81V2A2,2,0,0,1,2.12,0l179.7,10.66A2,2,0,0,1,183.7,12.66Z"/></g></g></svg>