<svg xmlns="http://www.w3.org/2000/svg" xmlns:xlink="http://www.w3.org/1999/xlink" viewBox="0 0 113.78 71.75"><defs><style>.cls-1{fill:url(#linear-gradient);}.cls-2{fill:url(#linear-gradient-2);}.cls-3{fill:url(#linear-gradient-3);}.cls-4{fill:url(#linear-gradient-4);}.cls-5{fill:url(#linear-gradient-5);}.cls-6{fill:url(#linear-gradient-6);}.cls-7{fill:url(#linear-gradient-7);}.cls-8{fill:url(#linear-gradient-8);}.cls-9{fill:url(#linear-gradient-9);}.cls-10{fill:url(#linear-gradient-10);}.cls-11{fill:url(#linear-gradient-11);}.cls-12{fill:url(#linear-gradient-12);}.cls-13{fill:#fff;}.cls-14{fill:url(#linear-gradient-13);}</style><linearGradient id="linear-gradient" y1="29.23" x2="91" y2="29.23" gradientUnits="userSpaceOnUse"><stop offset="0" stop-color="#e54545"/><stop offset="1" stop-color="#e54578"/></linearGradient><linearGradient id="linear-gradient-2" x1="33.87" y1="61.84" x2="57.12" y2="61.84" xlink:href="#linear-gradient"/><linearGradient id="linear-gradient-3" x1="23.56" y1="68.59" x2="67.44" y2="68.59" xlink:href="#linear-gradient"/><linearGradient id="linear-gradient-4" x1="11.46" y1="20.67" x2="80.21" y2="20.67" xlink:href="#linear-gradient"/><linearGradient id="linear-gradient-5" x1="36.01" y1="37.75" x2="54.99" y2="37.75" xlink:href="#linear-gradient"/><linearGradient id="linear-gradient-6" x1="93.2" y1="43.5" x2="107.53" y2="43.5" xlink:href="#linear-gradient"/><linearGradient id="linear-gradient-7" x1="92.42" y1="53.28" x2="108.3" y2="53.28" xlink:href="#linear-gradient"/><linearGradient id="linear-gradient-8" x1="92.42" y1="55.6" x2="106.88" y2="55.6" xlink:href="#linear-gradient"/><linearGradient id="linear-gradient-9" x1="92.42" y1="57.85" x2="105.53" y2="57.85" xlink:href="#linear-gradient"/><linearGradient id="linear-gradient-10" x1="92.42" y1="60.1" x2="104.06" y2="60.1" xlink:href="#linear-gradient"/><linearGradient id="linear-gradient-11" x1="61.22" y1="37.75" x2="80.21" y2="37.75" xlink:href="#linear-gradient"/><linearGradient id="linear-gradient-12" x1="11.46" y1="37.75" x2="30.45" y2="37.75" xlink:href="#linear-gradient"/><linearGradient id="linear-gradient-13" x1="86.95" y1="50.25" x2="113.78" y2="50.25" xlink:href="#linear-gradient"/></defs><title>ui-design-icon</title><g id="Layer_2" data-name="Layer 2"><g id="Layer_1-2" data-name="Layer 1"><path class="cls-1" d="M91,58.47H0V0H91Zm-84-7H84V7H7Z"/><rect class="cls-2" x="33.87" y="58" width="23.25" height="7.69"/><rect class="cls-3" x="23.56" y="65.69" width="43.88" height="5.81"/><rect class="cls-4" x="11.46" y="14.17" width="68.75" height="13"/><rect class="cls-5" x="36.01" y="31.25" width="18.99" height="13"/><rect class="cls-6" x="93.2" y="36.75" width="14.33" height="13.5"/><rect class="cls-7" x="92.42" y="52.58" width="15.88" height="1.39"/><rect class="cls-8" x="92.42" y="54.91" width="14.45" height="1.39"/><rect class="cls-9" x="92.42" y="57.16" width="13.1" height="1.39"/><rect class="cls-10" x="92.42" y="59.41" width="11.64" height="1.39"/><rect class="cls-11" x="61.22" y="31.25" width="18.99" height="13"/><rect class="cls-12" x="11.46" y="31.25" width="18.99" height="13"/><circle class="cls-13" cx="45.5" cy="55.61" r="2.03"/><path class="cls-14" d="M113.78,71.75H86.95v-43h26.83Zm-21.83-5h16.83v-33H91.95Z"/><circle class="cls-13" cx="100.62" cy="69.54" r="1.55"/></g></g></svg>